<?xml version="1.0" encoding="UTF-8" standalone="no"?>
<svg
   version="1.0"
   width="291.47531pt"
   height="260.52679pt"
   viewBox="0 0 291.47531 260.52679"
   preserveAspectRatio="xMidYMid"
   id="svg126"
   sodipodi:docname="1600w-67c7dc2mK1U.svg"
   xml:space="preserve"
   inkscape:export-filename="logo.svg"
   inkscape:export-xdpi="96"
   inkscape:export-ydpi="96"
   xmlns:inkscape="http://www.inkscape.org/namespaces/inkscape"
   xmlns:sodipodi="http://sodipodi.sourceforge.net/DTD/sodipodi-0.dtd"
   xmlns="http://www.w3.org/2000/svg"
   xmlns:svg="http://www.w3.org/2000/svg"><defs
     id="defs130" /><sodipodi:namedview
     id="namedview128"
     pagecolor="#ffffff"
     bordercolor="#000000"
     borderopacity="0.25"
     inkscape:showpageshadow="2"
     inkscape:pageopacity="0.0"
     inkscape:pagecheckerboard="0"
     inkscape:deskcolor="#d1d1d1"
     inkscape:document-units="pt"
     showgrid="false" /><path
     d="M 69.237657,0.51390639 C 42.152081,4.9281664 18.837921,21.342366 7.4808308,44.013676 c -6.77139396,13.49993 -8.91424,28.157 -6.55710896,44.27121 C 4.5237048,112.88476 15.880791,138.64177 34.694981,165.08449 c 10.92851,15.34278 20.74275,27.12843 42.642636,51.21405 8.91424,9.77138 35.999813,37.19978 41.271213,41.74258 l 2.87142,2.4857 9.12852,-4.6714 9.12852,-4.6714 4.92855,1.4143 c 5.74283,1.6714 13.88564,3.3428 18.34276,3.7714 3.42856,0.3 8.9571,-0.1286 8.3571,-0.6429 -0.17142,-0.1714 -2.52856,-1.0285 -5.18568,-1.8857 -17.95705,-5.7428 -39.08552,-19.4999 -56.014,-36.42828 -10.585663,-10.6286 -17.528483,-19.4142 -21.214183,-26.82848 -1.19999,-2.4857 -2.99998,-5.52854 -3.98569,-6.81425 -3.34284,-4.32855 -18.42848,-19.37133 -25.75701,-25.6713 -18.385616,-15.8142 -25.071296,-24.64273 -24.599876,-32.57126 0.12857,-2.44284 0.38572,-3.25713 1.32857,-4.54283 1.49999,-1.92856 4.02855,-3.25713 6.21425,-3.25713 4.02855,0 11.52851,5.39997 21.728456,15.64278 4.07141,4.11426 9.38567,8.91424 11.99994,10.92851 5.74283,4.37141 10.71423,8.44282 16.02849,13.24279 l 4.02855,3.64284 -0.25714,-2.22856 c -0.55714,-4.84283 -1.75714,-6.34282 -18.29991,-22.79988 -13.88564,-13.79993 -21.128456,-21.55703 -23.957016,-25.71416 -0.55714,-0.81428 -4.58569,-5.05711 -8.87138,-9.42852 -14.05707,-14.185644 -15.85706,-17.314204 -13.45707,-23.699884 2.01427,-5.39997 7.41424,-8.01424 13.49993,-6.55711 2.4857,0.6 2.74284,0.81429 8.31424,6.55711 3.17141,3.25713 9.814226,10.07138 14.785636,15.1285 16.88563,17.185624 33.814113,35.142674 37.671233,39.985514 l 2.01428,2.4857 0.42857,-1.15714 c 0.55714,-1.37142 0.77142,-1.11428 -7.49996,-10.11423 -8.914243,-9.64281 -16.457063,-18.47134 -21.042753,-24.557024 -5.2714,-6.94282 -11.27137,-13.28565 -22.842736,-24.21416 -15.55707,-14.61421 -21.94275,-25.45701 -18.47134,-31.19984 1.84285,-3.04284 7.28568,-5.18569 11.65709,-4.58569 3.47141,0.47142 9.042806,3.59998 13.628496,7.62853 2.22856,1.97142 7.07139,6.85711 10.75709,10.8428 3.64283,3.9857 10.11423,10.62852 14.31421,14.74278 8.99995,8.87139 14.657063,15.04278 20.185613,22.07132 l 4.07141,5.14283 0.12857,8.357104 c 0.0857,6.89996 0.29999,8.99995 1.07142,12.12851 0.81428,3.34284 0.89999,4.45712 0.68571,9.64281 -0.17143,3.21426 -0.68571,8.74281 -1.15714,12.29993 -0.55714,3.77141 -0.94285,8.82853 -0.94285,12.21423 -0.0429,5.39997 0.0429,5.95711 1.02857,7.92853 0.77142,1.49999 1.5857,2.35713 2.65713,2.91427 1.41427,0.68571 1.71427,0.72856 3.12855,0.12857 1.07142,-0.47143 1.71428,-1.11428 2.1857,-2.22856 0.98571,-2.31428 1.75714,-7.02854 2.09999,-12.38565 0.17143,-2.61428 0.72857,-7.15711 1.32857,-10.15709 0.55714,-2.99999 1.15714,-6.81425 1.28571,-8.44282 0.17142,-1.67142 0.47142,-3.04284 0.64285,-3.04284 0.64285,0 1.71428,2.57142 1.97142,4.67141 0.12857,1.15713 -0.0857,6.08568 -0.42857,11.01422 -0.38571,4.92855 -0.81428,14.95707 -0.94285,22.32846 -0.21429,11.22852 -0.17143,13.58565 0.38571,14.87135 1.58571,3.85713 7.58567,4.41427 9.85709,0.9 0.51428,-0.81428 0.81428,-2.69999 1.11428,-6.98568 0.68571,-10.2428 1.79999,-36.55695 1.62856,-38.48552 -0.0857,-1.54285 0,-1.8857 0.51429,-1.79999 0.55714,0.12857 0.68571,2.22856 0.94285,14.91421 0.17143,9.77138 0.0857,17.0142 -0.21428,21.42846 -0.68572,9.08567 -0.64286,17.3142 0.0857,19.84276 0.68571,2.35713 2.52856,4.15717 4.24283,4.15717 2.14285,0 4.45712,-1.75718 5.74283,-4.28574 1.71428,-3.34284 2.01428,-5.52855 2.57142,-18.59991 0.64285,-13.79993 0.68571,-19.84275 0.17143,-29.61413 -0.34286,-6.42854 -0.3,-7.37139 0.29999,-7.84282 0.47143,-0.42857 0.9,-0.47142 1.45714,-0.12857 0.77142,0.38571 0.85714,1.49999 1.37142,16.19992 0.47143,14.2285 0.47143,16.24277 -0.17143,20.48561 -0.72856,4.84283 -0.59999,11.4428 0.25714,14.87135 0.72857,2.87141 3.21427,3.64284 6.68568,2.09999 3.34284,-1.54285 5.5714,-7.32853 6.51426,-17.18563 1.15713,-11.87136 1.32856,-15.2142 1.32856,-26.18558 0,-9.89995 0.17143,-12.89993 1.02857,-19.28561 0.72856,-5.5714 1.2857,-8.09996 2.01427,-9.55709 0.55714,-1.11428 1.11428,-2.09999 1.28571,-2.22856 0.64285,-0.38572 2.65713,3.04284 3.21427,5.48568 1.84285,7.88567 6.34282,15.08564 11.57137,18.55705 6.12854,4.07141 13.84278,4.79997 15.59992,1.54285 0.77142,-1.45714 0.47142,-2.09999 -1.71428,-4.15712 -2.91427,-2.74285 -4.49998,-5.35712 -6.1714,-10.37138 -0.81428,-2.35713 -2.1857,-5.91425 -3.08569,-7.88567 l -1.62857,-3.55713 -0.0428,-7.07139 c 0,-6.81425 -0.0429,-7.157114 -1.11428,-9.214244 -0.64286,-1.19999 -1.92857,-2.99998 -2.82856,-4.07141 -0.94285,-1.07142 -4.62855,-7.4571 -8.22853,-14.27135 l -6.55711,-12.34279 0.51428,-2.01428 c 0.77143,-3.0857 3.9857,-9.64281 6.12854,-12.38565 4.41427,-5.74283 8.09996,-8.0571 12.29994,-7.7571 3.0857,0.21428 5.78569,1.97142 5.39997,3.51426 -0.12857,0.55714 -0.42857,2.82856 -0.68571,5.14284 -0.89999,7.84281 0.38571,13.92849 5.09998,24.1713 1.19999,2.65713 2.99998,7.58567 3.98569,10.92851 2.69999,9.47138 3.34284,10.58566 11.05709,18.514204 5.18568,5.35711 6.98567,7.49996 8.22852,9.85709 2.18571,4.24283 3.04285,8.0571 2.99999,13.71421 0,5.18569 -0.94285,0.9 10.45709,48.94261 2.09999,8.87138 3.94284,15.72848 4.11426,15.42849 0.17143,-0.3 0.34286,-3.77141 0.34286,-7.7571 v -7.24282 l 6.55711,-6.68568 c 13.75707,-14.05707 22.67131,-26.14273 30.0427,-40.75694 7.37139,-14.48564 10.41423,-28.28556 9.2571,-41.528354 -1.88571,-21.98561 -12.47137,-40.97122 -31.49984,-56.48543 -8.6571,-7.02853 -22.07132,-13.19993 -33.21412,-15.21421 -7.49996,-1.32856 -17.39991,-1.2857 -24.21416,0.21429 -12.12851,2.57141 -21.25703,6.81425 -31.71412,14.61421 -6.1714,4.58569 -16.19992,15.08564 -19.67133,20.52847 -0.42857,0.68571 -0.85714,1.11428 -0.98571,0.9857 -0.12857,-0.12857 -0.98571,-2.09998 -1.92856,-4.41426 -4.9714,-12.47136 -11.1428,-21.9856 -20.01418,-30.9427 C 117.75173,10.113856 106.30893,3.8567464 92.594717,1.0710464 86.980457,-0.04323361 74.509097,-0.38609361 69.237697,0.51390639 Z M 79.994737,28.156616 c 7.32854,1.37142 17.74277,8.82853 31.671273,22.62846 4.11426,4.11426 8.61424,8.44281 9.98566,9.59995 2.91427,2.61427 3.04284,3.34284 0.98571,6.72854 -3.59998,5.95711 -5.95711,12.04279 -7.67139,19.75704 -0.64285,2.69998 -1.19999,5.31426 -1.24285,5.78568 -0.17143,1.02857 -4.49997,-4.02855 -12.08565,-14.14278 -5.442833,-7.19997 -7.371393,-9.2571 -13.671363,-14.61421 -5.99997,-5.09998 -8.44281,-7.49997 -12.04279,-11.7428 -7.32854,-8.61424 -9.64281,-12.47136 -9.68567,-15.94278 0,-1.67142 0.25714,-2.31427 1.32857,-3.51426 1.5857,-1.84285 3.51426,-3.04284 6.47139,-4.11427 2.65713,-0.98571 2.95713,-0.98571 5.95711,-0.42857 z"
     id="path90"
     style="fill:#67159c;fill-opacity:1;stroke:none;stroke-width:0.0428569"
     inkscape:export-filename="favicon.svg"
     inkscape:export-xdpi="96"
     inkscape:export-ydpi="96" /></svg>
