<?xml version="1.0" encoding="UTF-8" standalone="no"?>
<svg
   version="1.0"
   width="1472.0311pt"
   height="260.52679pt"
   viewBox="0 0 1472.0311 260.52679"
   preserveAspectRatio="xMidYMid"
   id="svg126"
   sodipodi:docname="1600w-67c7dc2mK1U.svg"
   xml:space="preserve"
   inkscape:export-filename="logo.svg"
   inkscape:export-xdpi="96"
   inkscape:export-ydpi="96"
   xmlns:inkscape="http://www.inkscape.org/namespaces/inkscape"
   xmlns:sodipodi="http://sodipodi.sourceforge.net/DTD/sodipodi-0.dtd"
   xmlns="http://www.w3.org/2000/svg"
   xmlns:svg="http://www.w3.org/2000/svg"><defs
     id="defs130" /><sodipodi:namedview
     id="namedview128"
     pagecolor="#ffffff"
     bordercolor="#000000"
     borderopacity="0.25"
     inkscape:showpageshadow="2"
     inkscape:pageopacity="0.0"
     inkscape:pagecheckerboard="0"
     inkscape:deskcolor="#d1d1d1"
     inkscape:document-units="pt"
     showgrid="false" /><path
     d="M 69.237657,0.51390639 C 42.152081,4.9281664 18.837921,21.342366 7.4808308,44.013676 c -6.77139396,13.49993 -8.91424,28.157 -6.55710896,44.27121 C 4.5237048,112.88476 15.880791,138.64177 34.694981,165.08449 c 10.92851,15.34278 20.74275,27.12843 42.642636,51.21405 8.91424,9.77138 35.999813,37.19978 41.271213,41.74258 l 2.87142,2.4857 9.12852,-4.6714 9.12852,-4.6714 4.92855,1.4143 c 5.74283,1.6714 13.88564,3.3428 18.34276,3.7714 3.42856,0.3 8.9571,-0.1286 8.3571,-0.6429 -0.17142,-0.1714 -2.52856,-1.0285 -5.18568,-1.8857 -17.95705,-5.7428 -39.08552,-19.4999 -56.014,-36.42828 -10.585663,-10.6286 -17.528483,-19.4142 -21.214183,-26.82848 -1.19999,-2.4857 -2.99998,-5.52854 -3.98569,-6.81425 -3.34284,-4.32855 -18.42848,-19.37133 -25.75701,-25.6713 -18.385616,-15.8142 -25.071296,-24.64273 -24.599876,-32.57126 0.12857,-2.44284 0.38572,-3.25713 1.32857,-4.54283 1.49999,-1.92856 4.02855,-3.25713 6.21425,-3.25713 4.02855,0 11.52851,5.39997 21.728456,15.64278 4.07141,4.11426 9.38567,8.91424 11.99994,10.92851 5.74283,4.37141 10.71423,8.44282 16.02849,13.24279 l 4.02855,3.64284 -0.25714,-2.22856 c -0.55714,-4.84283 -1.75714,-6.34282 -18.29991,-22.79988 -13.88564,-13.79993 -21.128456,-21.55703 -23.957016,-25.71416 -0.55714,-0.81428 -4.58569,-5.05711 -8.87138,-9.42852 -14.05707,-14.185644 -15.85706,-17.314204 -13.45707,-23.699884 2.01427,-5.39997 7.41424,-8.01424 13.49993,-6.55711 2.4857,0.6 2.74284,0.81429 8.31424,6.55711 3.17141,3.25713 9.814226,10.07138 14.785636,15.1285 16.88563,17.185624 33.814113,35.142674 37.671233,39.985514 l 2.01428,2.4857 0.42857,-1.15714 c 0.55714,-1.37142 0.77142,-1.11428 -7.49996,-10.11423 -8.914243,-9.64281 -16.457063,-18.47134 -21.042753,-24.557024 -5.2714,-6.94282 -11.27137,-13.28565 -22.842736,-24.21416 -15.55707,-14.61421 -21.94275,-25.45701 -18.47134,-31.19984 1.84285,-3.04284 7.28568,-5.18569 11.65709,-4.58569 3.47141,0.47142 9.042806,3.59998 13.628496,7.62853 2.22856,1.97142 7.07139,6.85711 10.75709,10.8428 3.64283,3.9857 10.11423,10.62852 14.31421,14.74278 8.99995,8.87139 14.657063,15.04278 20.185613,22.07132 l 4.07141,5.14283 0.12857,8.357104 c 0.0857,6.89996 0.29999,8.99995 1.07142,12.12851 0.81428,3.34284 0.89999,4.45712 0.68571,9.64281 -0.17143,3.21426 -0.68571,8.74281 -1.15714,12.29993 -0.55714,3.77141 -0.94285,8.82853 -0.94285,12.21423 -0.0429,5.39997 0.0429,5.95711 1.02857,7.92853 0.77142,1.49999 1.5857,2.35713 2.65713,2.91427 1.41427,0.68571 1.71427,0.72856 3.12855,0.12857 1.07142,-0.47143 1.71428,-1.11428 2.1857,-2.22856 0.98571,-2.31428 1.75714,-7.02854 2.09999,-12.38565 0.17143,-2.61428 0.72857,-7.15711 1.32857,-10.15709 0.55714,-2.99999 1.15714,-6.81425 1.28571,-8.44282 0.17142,-1.67142 0.47142,-3.04284 0.64285,-3.04284 0.64285,0 1.71428,2.57142 1.97142,4.67141 0.12857,1.15713 -0.0857,6.08568 -0.42857,11.01422 -0.38571,4.92855 -0.81428,14.95707 -0.94285,22.32846 -0.21429,11.22852 -0.17143,13.58565 0.38571,14.87135 1.58571,3.85713 7.58567,4.41427 9.85709,0.9 0.51428,-0.81428 0.81428,-2.69999 1.11428,-6.98568 0.68571,-10.2428 1.79999,-36.55695 1.62856,-38.48552 -0.0857,-1.54285 0,-1.8857 0.51429,-1.79999 0.55714,0.12857 0.68571,2.22856 0.94285,14.91421 0.17143,9.77138 0.0857,17.0142 -0.21428,21.42846 -0.68572,9.08567 -0.64286,17.3142 0.0857,19.84276 0.68571,2.35713 2.52856,4.15717 4.24283,4.15717 2.14285,0 4.45712,-1.75718 5.74283,-4.28574 1.71428,-3.34284 2.01428,-5.52855 2.57142,-18.59991 0.64285,-13.79993 0.68571,-19.84275 0.17143,-29.61413 -0.34286,-6.42854 -0.3,-7.37139 0.29999,-7.84282 0.47143,-0.42857 0.9,-0.47142 1.45714,-0.12857 0.77142,0.38571 0.85714,1.49999 1.37142,16.19992 0.47143,14.2285 0.47143,16.24277 -0.17143,20.48561 -0.72856,4.84283 -0.59999,11.4428 0.25714,14.87135 0.72857,2.87141 3.21427,3.64284 6.68568,2.09999 3.34284,-1.54285 5.5714,-7.32853 6.51426,-17.18563 1.15713,-11.87136 1.32856,-15.2142 1.32856,-26.18558 0,-9.89995 0.17143,-12.89993 1.02857,-19.28561 0.72856,-5.5714 1.2857,-8.09996 2.01427,-9.55709 0.55714,-1.11428 1.11428,-2.09999 1.28571,-2.22856 0.64285,-0.38572 2.65713,3.04284 3.21427,5.48568 1.84285,7.88567 6.34282,15.08564 11.57137,18.55705 6.12854,4.07141 13.84278,4.79997 15.59992,1.54285 0.77142,-1.45714 0.47142,-2.09999 -1.71428,-4.15712 -2.91427,-2.74285 -4.49998,-5.35712 -6.1714,-10.37138 -0.81428,-2.35713 -2.1857,-5.91425 -3.08569,-7.88567 l -1.62857,-3.55713 -0.0428,-7.07139 c 0,-6.81425 -0.0429,-7.157114 -1.11428,-9.214244 -0.64286,-1.19999 -1.92857,-2.99998 -2.82856,-4.07141 -0.94285,-1.07142 -4.62855,-7.4571 -8.22853,-14.27135 l -6.55711,-12.34279 0.51428,-2.01428 c 0.77143,-3.0857 3.9857,-9.64281 6.12854,-12.38565 4.41427,-5.74283 8.09996,-8.0571 12.29994,-7.7571 3.0857,0.21428 5.78569,1.97142 5.39997,3.51426 -0.12857,0.55714 -0.42857,2.82856 -0.68571,5.14284 -0.89999,7.84281 0.38571,13.92849 5.09998,24.1713 1.19999,2.65713 2.99998,7.58567 3.98569,10.92851 2.69999,9.47138 3.34284,10.58566 11.05709,18.514204 5.18568,5.35711 6.98567,7.49996 8.22852,9.85709 2.18571,4.24283 3.04285,8.0571 2.99999,13.71421 0,5.18569 -0.94285,0.9 10.45709,48.94261 2.09999,8.87138 3.94284,15.72848 4.11426,15.42849 0.17143,-0.3 0.34286,-3.77141 0.34286,-7.7571 v -7.24282 l 6.55711,-6.68568 c 13.75707,-14.05707 22.67131,-26.14273 30.0427,-40.75694 7.37139,-14.48564 10.41423,-28.28556 9.2571,-41.528354 -1.88571,-21.98561 -12.47137,-40.97122 -31.49984,-56.48543 -8.6571,-7.02853 -22.07132,-13.19993 -33.21412,-15.21421 -7.49996,-1.32856 -17.39991,-1.2857 -24.21416,0.21429 -12.12851,2.57141 -21.25703,6.81425 -31.71412,14.61421 -6.1714,4.58569 -16.19992,15.08564 -19.67133,20.52847 -0.42857,0.68571 -0.85714,1.11428 -0.98571,0.9857 -0.12857,-0.12857 -0.98571,-2.09998 -1.92856,-4.41426 -4.9714,-12.47136 -11.1428,-21.9856 -20.01418,-30.9427 C 117.75173,10.113856 106.30893,3.8567464 92.594717,1.0710464 86.980457,-0.04323361 74.509097,-0.38609361 69.237697,0.51390639 Z M 79.994737,28.156616 c 7.32854,1.37142 17.74277,8.82853 31.671273,22.62846 4.11426,4.11426 8.61424,8.44281 9.98566,9.59995 2.91427,2.61427 3.04284,3.34284 0.98571,6.72854 -3.59998,5.95711 -5.95711,12.04279 -7.67139,19.75704 -0.64285,2.69998 -1.19999,5.31426 -1.24285,5.78568 -0.17143,1.02857 -4.49997,-4.02855 -12.08565,-14.14278 -5.442833,-7.19997 -7.371393,-9.2571 -13.671363,-14.61421 -5.99997,-5.09998 -8.44281,-7.49997 -12.04279,-11.7428 -7.32854,-8.61424 -9.64281,-12.47136 -9.68567,-15.94278 0,-1.67142 0.25714,-2.31427 1.32857,-3.51426 1.5857,-1.84285 3.51426,-3.04284 6.47139,-4.11427 2.65713,-0.98571 2.95713,-0.98571 5.95711,-0.42857 z"
     id="path90"
     style="fill:#67159c;fill-opacity:1;stroke:none;stroke-width:0.0428569"
     inkscape:export-filename="../Projetos/pai-presente/public/images/logo.svg"
     inkscape:export-xdpi="96"
     inkscape:export-ydpi="96" /><path
     fill="#da6ed0"
     opacity="1"
     stroke="none"
     d="m 690.3383,172.57296 c 4e-5,-35.68155 4e-5,-70.68527 4e-5,-106.067514 1.93965,-0.27177 3.2602,-0.61702 4.58094,-0.61777 19.16349,-0.0112 38.33059,-0.20234 57.4895,0.10664 23.44044,0.37806 37.65531,14.88654 37.59199,37.811224 -0.0642,23.27797 -15.22475,39.0186 -38.17626,39.44158 -9.79975,0.18072 -19.60561,0.0301 -30.64264,0.0301 0,6.55626 0,12.751 0,18.94573 0,6.02286 0,12.04574 0,18.49742 -10.38005,0 -20.07617,0 -30.8436,0 0,-2.53706 0,-5.00341 3e-5,-8.14753 m 30.83934,-62.45875 c 0.14742,2.01895 0.29489,4.03788 0.48206,6.60026 9.05756,0 17.63673,0.20185 26.20144,-0.0642 6.79104,-0.21095 10.63618,-4.04361 11.06377,-10.20818 0.45383,-6.543094 -3.05129,-11.445554 -9.96601,-11.919634 -8.96931,-0.61498 -18.0126,-0.15022 -27.78139,-0.15022 0,5.19352 0,9.792714 1.3e-4,15.741884 z"
     id="path1312"
     style="fill:#67159c;fill-opacity:1;stroke-width:1.40309" /><path
     fill="#da6fd0"
     opacity="1"
     stroke="none"
     d="m 330.84922,141.87651 c -2.1e-4,-25.41835 -2.1e-4,-50.135134 -2.1e-4,-75.305194 2.2976,-0.28215 4.06914,-0.68637 5.84119,-0.68858 18.44829,-0.0228 36.90013,-0.19841 55.34412,0.0969 23.77428,0.38071 38.79455,15.38993 38.4857,37.963584 -0.31743,23.20194 -16.09007,39.02202 -39.33004,39.32174 -9.51647,0.12272 -19.03587,0.0204 -29.32801,0.0204 0,12.77097 0,24.78963 0,37.33863 -10.43413,0 -20.10221,0 -31.01253,0 0,-12.60619 0,-25.32602 -2.2e-4,-38.74742 m 31.25483,-26.3934 c 8.97429,0.38764 17.94879,1.06404 26.92278,1.0572 5.59435,-0.004 9.04354,-3.2243 9.57291,-9.10633 0.61935,-6.88198 -1.94108,-12.033144 -8.11243,-12.570704 -9.38868,-0.81775 -18.90119,-0.21403 -28.70993,-0.21403 0,6.956194 0,13.243844 0.32667,20.833864 z"
     id="path1314"
     style="fill:#e82d92;fill-opacity:1;stroke-width:1.40309" /><path
     fill="#da6fd1"
     opacity="1"
     stroke="none"
     d="m 1423.7888,128.50238 c 1.327,15.84096 1.327,15.841 -14.1437,15.84106 -13.7042,4e-5 -27.4082,0 -41.3231,0 3.6388,13.76199 16.2438,15.46128 39.7638,5.73279 4.3062,7.44907 8.6765,15.00959 13.0154,22.51547 -16.606,12.89088 -52.873,16.3975 -71.1785,0.41924 -15.2476,-13.30907 -18.4265,-29.94809 -13.8678,-48.28436 4.1194,-16.56942 15.5191,-27.026714 32.3396,-30.421894 28.392,-5.73088 47.1077,5.876644 55.3943,34.197694 m -37.2828,0.50081 c 2.1711,-0.17117 4.3424,-0.34231 6.6631,-0.52527 -2.0919,-8.08553 -7.5434,-12.26477 -14.1849,-11.59948 -6.1844,0.61945 -10.4222,5.05433 -11.2554,12.12432 5.8535,0 11.6638,0 18.7772,4.3e-4 z"
     id="path1316"
     style="fill:#67159c;fill-opacity:1;stroke-width:1.40309" /><path
     fill="#da6fd1"
     opacity="1"
     stroke="none"
     d="m 938.80163,150.56105 c 5.5602,7.11446 10.6205,14.39065 15.6489,21.62089 -20.7368,15.17133 -52.4546,15.50768 -71.08979,1.09138 -15.76514,-12.19594 -18.81341,-28.87585 -14.81641,-47.22058 3.61152,-16.57571 14.38654,-27.395164 30.6307,-31.292124 29.5825,-7.09678 56.2503,6.217144 58.80664,44.332354 0.3215,4.79385 -2.29884,5.30786 -6.05714,5.28461 -14.2607,-0.0881 -28.5223,-0.0346 -42.7836,-0.0342 -2.5401,1e-4 -5.0803,4e-5 -7.7078,4e-5 1.1189,7.12646 5.6666,11.26106 12.6823,11.81625 8.6049,0.68097 16.7407,-0.88284 24.6862,-5.59864 m -36.204,-21.56863 c 7.7623,0 15.5247,0 23.8164,0 -1.9263,-8.26172 -6.5867,-11.32281 -12.8023,-12.05464 -7.2071,-0.84855 -14.0107,6.12495 -11.0141,12.05464 z"
     id="path1318"
     style="fill:#67159c;fill-opacity:1;stroke-width:1.40309" /><path
     fill="#da6fd1"
     opacity="1"
     stroke="none"
     d="m 1081.1603,179.19694 c -33.5725,-15.69055 -31.5286,-62.21939 -7.1557,-78.34377 13.9011,-9.196574 36.5727,-10.826484 51.2972,-1.901154 16.7316,10.142044 21.1264,26.135794 20.9643,45.109174 -19.1141,0 -37.7191,0 -56.4746,0 3.1023,13.92178 14.4236,15.57168 39.7703,6.18442 2.1751,3.6291 4.4789,7.34259 6.6497,11.13222 2.0745,3.62191 4.0107,7.32305 6.5405,11.96744 -19.8119,10.94445 -39.8267,14.04881 -61.5917,5.85167 m 23.5474,-50.19313 c 3.3449,0 6.6896,0 10.3565,0 -2.8793,-8.62358 -8.1256,-12.73881 -14.3277,-12.11191 -6.5482,0.66185 -10.7412,4.96907 -11.2397,12.11141 4.6538,0 9.2715,0 15.2109,5e-4 z"
     id="path1320"
     style="fill:#67159c;fill-opacity:1;stroke-width:1.40309" /><path
     fill="#db6fd1"
     opacity="1"
     stroke="none"
     d="m 520.99972,115.05466 c 1.08679,21.44804 1.97787,42.36363 2.89852,63.97312 -22.9492,4.47486 -44.70599,8.00275 -66.53303,1.1681 -11.96907,-3.74784 -18.78555,-14.14386 -17.64348,-24.77959 1.52028,-14.15779 10.07122,-22.86078 25.0514,-24.55937 8.47098,-0.96052 17.05508,-0.92344 25.67907,-1.34008 0.67702,-6.32827 -2.18778,-10.01781 -10.08871,-9.8865 -11.09524,0.18446 -22.1713,1.52418 -34.0276,2.42869 2.03575,-7.21949 4.15458,-15.17169 6.61957,-23.015124 0.38091,-1.21197 2.23863,-2.52468 3.60109,-2.77686 15.4185,-2.85401 30.86233,-4.67878 46.25265,0.27297 9.0852,2.92312 15.25578,8.726494 18.19052,18.514644 m -28.88708,35.09169 c -1.94874,-6.99357 -7.73586,-4.06576 -11.60528,-3.64079 -3.09604,0.34007 -6.38104,3.13341 -8.53976,5.71098 -0.82492,0.98493 0.7543,6.0058 2.09057,6.41711 4.94489,1.52186 10.27305,2.45943 15.38998,2.21428 1.04761,-0.0501 1.80481,-6.16126 2.66449,-10.70158 z"
     id="path1322"
     style="fill:#e82d92;fill-opacity:1;stroke-width:1.40309" /><path
     fill="#da6ed0"
     opacity="1"
     stroke="none"
     d="m 1241.3579,173.87418 c -0.1485,2.69374 -0.2965,4.72083 -0.4561,6.90639 -10.5131,0 -20.456,0 -31.2672,0 0,-13.61673 0,-26.86667 0,-40.11663 0,-1.16851 -0.064,-2.34106 0.01,-3.50491 0.9426,-14.87294 -1.6941,-18.05535 -19.4215,-15.6137 0,19.37534 0,38.87898 0,58.99891 -10.6205,0 -20.494,0 -30.8827,0 0,-27.40349 0,-54.8415 0,-83.039424 18.3109,-2.54698 36.4844,-6.98121 55.245,-3.16032 18.2058,3.70791 26.3496,14.285124 26.7203,35.395504 0.2544,14.48504 0.051,28.97808 0.053,44.13418 z"
     id="path1324"
     style="fill:#67159c;fill-opacity:1;stroke-width:1.40309" /><path
     fill="#da6ed0"
     opacity="1"
     stroke="none"
     d="m 1323.124,172.59458 c 0,2.97464 0,5.2709 0,7.561 -14.2295,0 -27.9732,0.97152 -41.5044,-0.30628 -10.8945,-1.02879 -16.9517,-9.27842 -17.4685,-20.3747 -0.3911,-8.39924 -0.6128,-16.85174 -0.1124,-25.23291 0.4056,-6.79504 -1.2603,-10.36104 -8.7439,-9.0989 -1.3229,0.22309 -2.7511,-0.17847 -4.6347,-0.33292 0,-9.08687 0,-18.0437 0,-27.445834 4.2724,-0.26877 8.3543,-0.52556 13.1752,-0.82885 0,-7.70372 0,-15.07813 0,-22.89889 10.4682,0 20.1769,0 30.8893,0 0,7.48958 0,15.03535 0,23.20437 9.762,0 18.5532,0 27.864,0 0,9.587284 0,18.526994 0,28.186664 -8.9861,0 -17.7648,0 -27.4869,0 0,7.3452 -0.7309,14.1285 0.3718,20.59926 0.4212,2.47116 4.836,5.57724 7.791,6.02694 6.1286,0.93266 12.4981,0.28146 19.8594,0.28146 0,7.10903 0,13.54511 10e-5,20.65959 z"
     id="path1326"
     style="fill:#67159c;fill-opacity:1;stroke-width:1.40309" /><path
     fill="#db6fd1"
     opacity="1"
     stroke="none"
     d="m 1011.3083,92.977456 c 11.0765,2.02288 21.5074,4.02722 33.1881,6.27171 -3.5484,8.212694 -6.351,14.699074 -9.2039,21.302164 -10.7536,-2.93854 -20.9179,-7.66141 -32.3452,-0.66666 2.3905,1.27848 4.6744,2.84459 7.1929,3.7777 5.8957,2.18444 12.1028,3.61727 17.8275,6.1574 14.4275,6.40177 19.1548,15.15186 17.2782,30.65959 -1.3503,11.1605 -8.8412,19.00171 -22.8417,21.18426 -18.4278,2.87268 -36.67653,1.64678 -54.24573,-6.765 2.659,-6.85373 5.169,-13.32352 7.3557,-18.95969 10.4144,1.53511 20.2284,3.06096 30.07163,4.36752 2.0315,0.26965 4.3403,0.15097 6.2076,-0.58481 1.4808,-0.58348 2.9522,-2.21937 3.4794,-3.72093 0.2328,-0.66301 -1.6862,-2.72465 -2.9661,-3.16124 -4.838,-1.65044 -9.8381,-2.81719 -14.73453,-4.30635 -12.8176,-3.89827 -24.0024,-9.28961 -25.6654,-24.94972 -1.2457,-11.72987 3.7165,-22.4667 14.8898,-26.402174 7.5183,-2.64817 15.88113,-2.89897 24.51173,-4.20377 z"
     id="path1328"
     style="fill:#67159c;fill-opacity:1;stroke-width:1.40309" /><path
     fill="#da6fd1"
     opacity="1"
     stroke="none"
     d="m 586.03329,71.428966 c 1.3788,-2.05779 2.33784,-4.5473 3.83469,-4.92926 14.42558,-3.68095 29.00633,-5.06614 43.35154,0.14817 12.59689,4.57882 20.62528,13.23368 22.0839,27.09223 1.72611,16.400044 -4.37639,28.830544 -19.16028,36.311754 -4.92429,2.49187 -8.98783,4.74439 -7.67066,11.48963 -10.2334,0 -19.95265,0 -30.31376,0 0,-7.92885 0,-15.89473 0,-23.84171 6.00808,-1.3427 11.93654,-2.38667 17.69223,-4.03421 5.57303,-1.59528 8.82443,-5.67637 7.93473,-11.53077 -0.86722,-5.706434 -5.38913,-8.216394 -10.75587,-8.002844 -10.4108,0.41425 -20.7997,1.37767 -32.56379,2.2102 1.75607,-7.92838 3.57657,-16.14771 5.56727,-24.91319 z"
     id="path1330"
     style="fill:#e82d92;fill-opacity:1;stroke-width:1.40309" /><path
     fill="#da6dd0"
     opacity="1"
     stroke="none"
     d="m 856.15791,120.58747 c -1.45918,1.98195 -2.7726,4.1566 -4.39103,4.41412 -3.65026,0.5808 -7.48452,0.53768 -11.18389,0.16014 -6.56572,-0.6701 -8.98618,1.56917 -8.7542,8.52168 0.51387,15.40065 0.15995,30.83024 0.15995,46.86244 -10.18339,0 -20.05845,0 -30.44073,0 0,-26.50569 0,-53.03062 0,-81.570324 17.73734,-0.87741 35.6759,-1.7648 54.61718,-2.70178 0,8.843944 0,16.240074 -0.007,24.313724 z"
     id="path1332"
     style="fill:#67159c;fill-opacity:1;stroke-width:1.40309" /><path
     fill="#db72d2"
     opacity="1"
     stroke="none"
     d="m 536.14196,139.07033 c 1.8e-4,-14.19723 1.8e-4,-27.69292 1.8e-4,-41.647834 10.66669,0 20.60464,0 31.16658,0 0,27.583744 0,55.200794 0,83.289814 -10.06267,0 -20.00211,0 -31.16697,0 0,-13.59686 0,-27.26867 2.1e-4,-41.64198 z"
     id="path1334"
     style="fill:#e82d92;fill-opacity:1;stroke-width:1.40309" /><path
     fill="#db6fd1"
     opacity="1"
     stroke="none"
     d="m 1470.3102,122.22882 c 0,7.46095 0,14.22167 0,21.5856 -10.2882,0 -20.1527,0 -30.4966,0 0,-26.01245 0,-51.829264 0,-78.582764 9.1417,0 18.1915,-0.24549 27.1946,0.28933 1.2198,0.0724 3.1211,4.04361 3.1564,6.23443 0.2662,16.58755 0.1459,33.181314 0.1459,50.473404 z"
     id="path1336"
     style="fill:#67159c;fill-opacity:1;stroke-width:1.40309" /><path
     fill="#db70d1"
     opacity="1"
     stroke="none"
     d="m 1464.1278,181.02997 c -6.8854,0.009 -13.6964,1.17182 -19.4053,-0.82148 -3.4553,-1.20642 -7.2614,-7.36869 -7.1423,-11.18675 0.1216,-3.86289 4.1472,-8.82599 7.8265,-11.00884 3.6117,-2.14292 9.0168,-2.17579 13.493,-1.72514 5.997,0.60372 11.3253,3.4443 12.7531,10.11975 1.3765,6.4375 -0.9726,11.41266 -7.525,14.62246 z"
     id="path1338"
     style="fill:#67159c;fill-opacity:1;stroke-width:1.40309" /><path
     fill="#db70d1"
     opacity="1"
     stroke="none"
     d="m 596.79413,163.71797 c 7.19592,-8.35928 18.59552,-10.23487 27.34937,-4.9187 5.70776,3.46632 7.77618,10.6686 4.39878,16.46571 -3.61606,6.20689 -9.67119,7.33377 -16.2823,7.39599 -6.55788,0.0616 -12.4024,-1.71115 -15.22063,-7.79539 -1.38795,-2.99647 -0.40756,-7.08995 -0.24522,-11.14761 z"
     id="path1340"
     style="fill:#e82d92;fill-opacity:1;stroke-width:1.40309" /><path
     fill="#db71d1"
     opacity="1"
     stroke="none"
     d="m 544.83428,63.255986 c 10.30587,-2.76595 17.49593,-0.49656 20.38851,6.06004 2.60187,5.89766 0.49423,12.74064 -4.84873,15.74257 -6.82133,3.83253 -16.88967,2.01899 -20.81476,-3.74924 -4.0775,-5.99216 -2.4005,-12.28497 5.27498,-18.05337 z"
     id="path1342"
     style="fill:#e82d92;fill-opacity:1;stroke-width:1.40309" /></svg>
